/* XPM */
static char * icon_xpm[] = {
"32 32 58 1",
" 	c None",
".	c #F7963B",
"+	c #F0973F",
"@	c #EB9A44",
"#	c #E59C48",
"$	c #1C2DEA",
"%	c #0B1364",
"&	c #0C1365",
"*	c #0A1057",
"=	c #DF9E4D",
"-	c #0D156D",
";	c #D89F51",
">	c #D2A156",
",	c #CDA45B",
"'	c #C7A65F",
")	c #6269BC",
"!	c #999999",
"~	c #5E66BE",
"{	c #565FC3",
"]	c #0F1985",
"^	c #BBAA68",
"/	c #0D1570",
"(	c #101A8D",
"_	c #B5AC6D",
":	c #0E177B",
"<	c #0E177A",
"[	c #101A8B",
"}	c #AFAE72",
"|	c #A8AF76",
"1	c #A2B17B",
"2	c #9DB47F",
"3	c #97B684",
"4	c #90B789",
"5	c #FF0000",
"6	c #6F0000",
"7	c #6E0000",
"8	c #8BBA8D",
"9	c #770000",
"0	c #5F0000",
"a	c #85BC92",
"b	c #3F0000",
"c	c #7FBE96",
"d	c #78BF9B",
"e	c #C55656",
"f	c #BF6060",
"g	c #C85151",
"h	c #B27373",
"i	c #6DC4A4",
"j	c #67C6A9",
"k	c #860000",
"l	c #7B0000",
"m	c #60C7AD",
"n	c #5BCAB2",
"o	c #55CCB7",
"p	c #4FCEBB",
"q	c #48CFC0",
"r	c #43D1C4",
"s	c #3DD4C9",
"................................",
"++++++++++++++++++++++++++++++++",
"@@@@@@@@@@@@@@@@@@@@@@@@@@@@@@@@",
"#####$$%####$$&#####$*###$%#####",
"=====$$%====$$-=====$-===$-=====",
";;;;;$%$%;;$$$-;;;;;$-;;;$-;;;;;",
">>>>>$-$$%$$%$->>>>>$->>>$->>>>>",
",,,,,$-%$$$%%$-,,,,,$*,,,$-,,,,,",
"'''''$-'%$%%'$-'''''$$$$$$-'''''",
"$)!!!$~!!))!!$~!!!!!$))~{$~!!!!$",
"]$%^^$-^^^^^^$-^^^^^$/^^^$-^^$$(",
"_]$%_$-______$-_____$-___$-_$:<[",
"}}]$%$-}}}}}}$-}}}}}$-}}}$*$&&}}",
"|||]$$-||||||$*|||||$-|||$$-*|||",
"1111]$-111111$$$$$$$$-111$%<1111",
"22222%%222222&------&*222**22222",
"33333333333333333333333333333333",
"44444564444445555555555555744444",
"88885598888885669990509965578888",
"aaa5b59aaaaaa59aaaaa59aaa6057aaa",
"cc56059cccccc59ccccc59ccccc757cc",
"d560d59dddddd59ddddd59dddddd7557",
"5ef!!5g!!!!!!5g!!!!!5h!!!!!!!ee5",
"06iii59ii5iii59iiiii5555557iiii7",
"jjjjj59j555jj59jjjjj5k9l990jjjjj",
"mmmmm5955655m59mmmmm59mmmmmmmmmm",
"nnnnn5656675559nnnnn59nnnnnnnnnn",
"ooooo5567oo7559ooooo50oooooooooo",
"ppppp559pppp559ppppp5555550ppppp",
"qqqqq660qqqq670qqqqq9999996qqqqq",
"rrrrrrrrrrrrrrrrrrrrrrrrrrrrrrrr",
"ssssssssssssssssssssssssssssssss"};
