/* XPM */
static char * button_undo_xpm[] = {
"20 20 3 1",
" 	c None",
".	c #000000",
"+	c #1DBA18",
"                    ",
"                    ",
"      .......       ",
"    ...+++++...     ",
"   ..+++++++++..    ",
"   .+++++..++++.    ",
"  ..+++.....+++..   ",
"  .+++..   ..+++.   ",
"  .++..     .+++.   ",
"  .++.      ..++.   ",
"  .++.       .++.   ",
" ..++..      .++.   ",
" .++++.      .++.   ",
" ..++..      .++.   ",
"  ..+.       ....   ",
"   ...              ",
"                    ",
"                    ",
"                    ",
"                    "};
