/* XPM */
static char * button_save_xpm[] = {
"20 20 5 1",
" 	c None",
".	c #000000",
"+	c #4253ED",
"@	c #C9C9C9",
"#	c #FFFFFF",
"                    ",
"                    ",
"  ..............    ",
"  .++.@@@@@@.++..   ",
"  .++.@@@..@.+++..  ",
"  .++.@@@..@.++++.  ",
"  .++.@@@@@@.++++.  ",
"  .++........++++.  ",
"  .++++++++++++++.  ",
"  .++++++++++++++.  ",
"  .++##########++.  ",
"  .++##########++.  ",
"  .++##########++.  ",
"  .++##########++.  ",
"  .++##########++.  ",
"  .++##########++.  ",
"  .++++++++++++++.  ",
"  ................  ",
"                    ",
"                    "};
