/* XPM */
static char * button_cursorend_xpm[] = {
"20 20 5 1",
" 	c None",
".	c #E8A540",
"+	c #777777",
"@	c #000000",
"#	c #0000FF",
"                    ",
"                    ",
"                    ",
"                    ",
"  .......+@@@@@@@@  ",
"  .......+@@@@@@@@  ",
"  .......+@@@@@@@@  ",
"  .......+@@@@@@@@  ",
"  ..#....#@@@@#@@@  ",
"  #.#####+##@#@###  ",
"  .#..#..+@@#@@##@  ",
"  .......+@@@@@@@@  ",
"  .......+@@@@@@@@  ",
"  .......+@@@@@@@@  ",
"  .......+@@@@@@@@  ",
"  .......+@@@@@@@@  ",
"                    ",
"                    ",
"                    ",
"                    "};
