/* XPM */
static char * button_pasteover_xpm[] = {
"20 20 5 1",
" 	c None",
".	c #000000",
"+	c #FFFFFF",
"@	c #C9C9C9",
"#	c #999999",
"                    ",
"                    ",
"                    ",
"           .......  ",
"           .+++++.  ",
"           .+++++.  ",
"           .+++++.  ",
"           .+++++.  ",
"           .+++++.  ",
"  .......  .+++++.  ",
"  .@@@@@.  .+++++.  ",
"  .@@@@@.  .+++++.  ",
"  .@@@@@.  .......  ",
"  .@@@@@.  .#####.  ",
"  .@@@@@.  .@@@@@.  ",
"  .@@@@@.  .@@@@@.  ",
"  .@@@@@.  .@@@@@.  ",
"  .@@@@@.  .@@@@@.  ",
"  .......  .......  ",
"                    "};
