/* XPM */
static char * button_copy_xpm[] = {
"20 20 4 1",
" 	c None",
".	c #000000",
"+	c #C9C9C9",
"@	c #F9F9F9",
"                    ",
"      ............  ",
"      .++++++++++.  ",
"      .++++++++++.  ",
"  ............+++.  ",
"  .@@@@@@@@@@.+++.  ",
"  .@@@@@@@@@@.+++.  ",
"  .@@@@@@@@@@.+++.  ",
"  .@@@@@@@@@@.+++.  ",
"  .@@@@@@@@@@.+++.  ",
"  .@@@@@@@@@@.+++.  ",
"  .@@@@@@@@@@.+++.  ",
"  .@@@@@@@@@@.+++.  ",
"  .@@@@@@@@@@.+++.  ",
"  .@@@@@@@@@@.....  ",
"  .@@@@@@@@@@.      ",
"  .@@@@@@@@@@.      ",
"  ............      ",
"                    ",
"                    "};
