/* XPM */
static char * button_record_xpm[] = {
"20 20 19 1",
" 	c None",
".	c #000000",
"+	c #E20E0E",
"@	c #E30E0E",
"#	c #DE0B0B",
"$	c #D80808",
"%	c #E50F0F",
"&	c #EA1212",
"*	c #ED1313",
"=	c #D60707",
"-	c #F21616",
";	c #F61818",
">	c #D90909",
",	c #D10404",
"'	c #FF1D1D",
")	c #DA0A0A",
"!	c #CE0303",
"~	c #CC0303",
"{	c #CC0101",
"                    ",
"                    ",
"                    ",
"                    ",
"      .......       ",
"     ..+@+#$..      ",
"    ..%&*&%#=..     ",
"    .+&-;-&+>,.     ",
"    .@*;';*@),.     ",
"    .+&-;-&+>,.     ",
"    .#%&*&%#=!.     ",
"    .$#+@+#$,~.     ",
"    ..=>)>=,{..     ",
"     ..,,,!~..      ",
"      .......       ",
"                    ",
"                    ",
"                    ",
"                    ",
"                    "};
