/* XPM */
static char * button_open_xpm[] = {
"20 20 4 1",
" 	c None",
".	c #000000",
"+	c #B78233",
"@	c #E8A540",
"                    ",
"                    ",
"                    ",
"       ...........  ",
"       .+++++++++.  ",
"     ...+++++++++.  ",
"    ...........++.  ",
"    .@@@@@@@@@.++.  ",
"  ...@@@@@@@@@.++.  ",
"  .@@@@@@@@@@@.++.  ",
"  .@@@@@@@@@@@.++.  ",
"  .@@@@@@@@@@@.++.  ",
"  .@@@@@@@@@@@....  ",
"  .@@@@@@@@@@@.     ",
"  .@@@@@@@@@@@.     ",
"  .............     ",
"                    ",
"                    ",
"                    ",
"                    "};
