/* XPM */
static char * button_follow_xpm[] = {
"20 20 5 1",
" 	c None",
".	c #000000",
"+	c #777777",
"@	c #FFFFFF",
"#	c #0000FF",
"                    ",
"                    ",
"                    ",
"                    ",
"  .......+........  ",
"  .......+........  ",
"  .......+........  ",
"  ....@..+..@.....  ",
"  ..#.@@.#.@@.#...  ",
"  #@@@@@@+@@@@@@##  ",
"  .#..@@.+.@@..##.  ",
"  ....@..+..@.....  ",
"  .......+........  ",
"  .......+........  ",
"  .......+........  ",
"  .......+........  ",
"                    ",
"                    ",
"                    ",
"                    "};
