/* XPM */
static char * button_paste_xpm[] = {
"20 20 4 1",
" 	c None",
".	c #000000",
"+	c #FFFFFF",
"@	c #C9C9C9",
"       .+++++.      ",
"       .+++++.      ",
"       .+++++.      ",
"       .+++++.      ",
"       .+++++.      ",
"       .+++++.      ",
"       .+++++.      ",
"       .......      ",
"                    ",
"  .......  .......  ",
"  .@@@@@.  .@@@@@.  ",
"  .@@@@@.  .@@@@@.  ",
"  .@@@@@.  .@@@@@.  ",
"  .@@@@@.  .@@@@@.  ",
"  .@@@@@.  .@@@@@.  ",
"  .@@@@@.  .@@@@@.  ",
"  .@@@@@.  .@@@@@.  ",
"  .@@@@@.  .@@@@@.  ",
"  .......  .......  ",
"                    "};
