/* XPM */
static char * button_delete_xpm[] = {
"20 20 25 1",
" 	c None",
".	c #E51B1B",
"+	c #840F0F",
"@	c #DA1919",
"#	c #B11414",
"$	c #000000",
"%	c #050000",
"&	c #E01A1A",
"*	c #FFFFFF",
"=	c #EF7A7A",
"-	c #EC6060",
";	c #E51D1D",
">	c #E62626",
",	c #E62B2B",
"'	c #FAD4D4",
")	c #E62525",
"!	c #F7BDBD",
"~	c #710D0D",
"{	c #E52323",
"]	c #F8C2C2",
"^	c #E83C3C",
"/	c #E41A1A",
"(	c #EB5252",
"_	c #E31A1A",
":	c #FEF9F9",
"                    ",
"                    ",
" ..           ..    ",
"  ....       ...    ",
"    ....     ..     ",
"      +@.#$%&.      ",
"      $*=.-;&       ",
"      $**>.,%       ",
"      $')..!$       ",
"      ~.{]>^$       ",
"     ./^**(.~       ",
"    ..+****^_       ",
"    ..$****:&.      ",
"    . $*****%..     ",
"   .. $$$$$$$ .     ",
"   .          ..    ",
"  ..           ..   ",
"               ..   ",
"                    ",
"                    "};
