/* XPM */
static char * button_stop_xpm[] = {
"20 20 10 1",
" 	c None",
".	c #000000",
"+	c #9A0F0F",
"@	c #A50F0F",
"#	c #B00F0F",
"$	c #BA0E0E",
"%	c #C50E0E",
"&	c #CF0E0E",
"*	c #DA0D0D",
"=	c #E50D0D",
"                    ",
"                    ",
"                    ",
"                    ",
"    ............    ",
"    .++++++++++.    ",
"    .@@@@@@@@@@.    ",
"    .##########.    ",
"    .$$$$$$$$$$.    ",
"    .%%%%%%%%%%.    ",
"    .&&&&&&&&&&.    ",
"    .**********.    ",
"    .==========.    ",
"    .==========.    ",
"    .==========.    ",
"    ............    ",
"                    ",
"                    ",
"                    ",
"                    "};
