/* XPM */
static char * button_undo_xpm[] = {
"20 20 40 1",
" 	c None",
".	c #000000",
"+	c #26BA21",
"@	c #23BA1E",
"#	c #1FBA1A",
"$	c #1DB917",
"%	c #32BB2C",
"&	c #30BB2A",
"*	c #2DBB28",
"=	c #2ABB24",
"-	c #21BA1C",
";	c #3ABC35",
">	c #39BC34",
",	c #37BC32",
"'	c #34BB2F",
")	c #30BB2B",
"!	c #2CBB27",
"~	c #27BA22",
"{	c #22BA1D",
"]	c #42BC3D",
"^	c #40BC3B",
"/	c #3EBC39",
"(	c #4ABD45",
"_	c #49BD44",
":	c #47BD42",
"<	c #51BE4C",
"[	c #58BE53",
"}	c #59BE54",
"|	c #5FBF5B",
"1	c #61BF5C",
"2	c #28BA23",
"3	c #66BF62",
"4	c #68BF64",
"5	c #2ABB25",
"6	c #6DC068",
"7	c #70C06C",
"8	c #2BBB26",
"9	c #24BA1F",
"0	c #77C073",
"a	c #1DBA18",
"                    ",
"                    ",
"       ......       ",
"     ...+@#$...     ",
"    ..%&*=+-$$..    ",
"   ..;>,')!~{$$..   ",
"   .]]^/....~-$$.   ",
"  ..(_:..  ..+#$..  ",
"  .<<<..    ..@$$.  ",
"  .[}[.      .+#$.  ",
"  .|1|.      .2-$.  ",
" ..343..     .5@$.  ",
"..36763..    .89$.  ",
" ..707..     .!9a.  ",
"  ..7..      .....  ",
"   ...              ",
"                    ",
"                    ",
"                    ",
"                    "};
