/* XPM */
static char * button_record_xpm[] = {
"20 20 20 1",
" 	c None",
".	c #000000",
"+	c #E34949",
"@	c #E54E4E",
"#	c #DF3B3B",
"$	c #DA2929",
"%	c #E65353",
"&	c #EB6666",
"*	c #ED6E6E",
"=	c #D82222",
"-	c #F28282",
";	c #F69090",
">	c #DB2C2C",
",	c #D21111",
"'	c #FFB5B5",
")	c #DC3030",
"!	c #D31414",
"~	c #D00909",
"{	c #CE0202",
"]	c #CE0303",
"                    ",
"                    ",
"                    ",
"                    ",
"      .......       ",
"     ..+@+#$..      ",
"    ..%&*&%#=..     ",
"    .+&-;-&+>,.     ",
"    .@*;';*@)!.     ",
"    .+&-;-&+>,.     ",
"    .#%&*&%#=~.     ",
"    .$#+@+#$!{.     ",
"    ..=>)>=!]..     ",
"     ..,!,~{..      ",
"      .......       ",
"                    ",
"                    ",
"                    ",
"                    ",
"                    "};
