/* XPM */
static char * button_bounce_xpm[] = {
"20 20 16 1",
" 	c None",
".	c #000000",
"+	c #60D33C",
"@	c #090909",
"#	c #111111",
"$	c #FCFCFC",
"%	c #1A1A1A",
"&	c #191921",
"*	c #FFFFFF",
"=	c #2C2C2C",
"-	c #F9F9F9",
";	c #353535",
">	c #3D3D3D",
",	c #464646",
"'	c #4F4F4F",
")	c #585858",
"                    ",
"                    ",
"                    ",
"  ................. ",
"  .++...........+.. ",
"  .++............+. ",
"  .++@@@@@@@@@@@+@. ",
"  .++###$########+. ",
"  .++%%$$%%%%%%%+&. ",
"  .++%*********%%+. ",
"  .++=.--......=+=. ",
"  .++;;.-.;;;;;;;+. ",
"  .++>>>.>>>>>>>+>. ",
"  .++,,,,,,,,,,,,+. ",
"  .++'''''''''''+'. ",
"  .++))))))))))))+. ",
"  ................. ",
"                    ",
"                    ",
"                    "};
