/* XPM */
static char * button_delete_xpm[] = {
"20 20 141 2",
"  	c None",
". 	c #E51B1B",
"+ 	c #D21818",
"@ 	c #CF1818",
"# 	c #730D0D",
"$ 	c #0E0101",
"% 	c #000000",
"& 	c #040000",
"* 	c #230404",
"= 	c #830F0F",
"- 	c #DE2626",
"; 	c #DF2424",
"> 	c #C55B5B",
", 	c #AA9E9E",
"' 	c #AAAAAA",
") 	c #ADADAD",
"! 	c #AFAFAF",
"~ 	c #B0B0B0",
"{ 	c #B1ADAD",
"] 	c #BB8F8F",
"^ 	c #9B1212",
"/ 	c #130202",
"( 	c #C35A5A",
"_ 	c #E02424",
": 	c #E02525",
"< 	c #CB6060",
"[ 	c #B5A8A8",
"} 	c #B4B4B4",
"| 	c #B7B7B7",
"1 	c #B8B6B6",
"2 	c #BF9C9C",
"3 	c #D74848",
"4 	c #D41919",
"5 	c #A99D9D",
"6 	c #C95E5E",
"7 	c #E12525",
"8 	c #CF6767",
"9 	c #BEB3B3",
"0 	c #BEBBBB",
"a 	c #C6A3A3",
"b 	c #D75656",
"c 	c #E22626",
"d 	c #BF1616",
"e 	c #ABABAB",
"f 	c #B4A7A7",
"g 	c #D06161",
"h 	c #E22525",
"i 	c #E12929",
"j 	c #D46E6E",
"k 	c #CE9898",
"l 	c #DC4A4A",
"m 	c #E32323",
"n 	c #E03737",
"o 	c #550A0A",
"p 	c #C0ACAC",
"q 	c #D75D5D",
"r 	c #E22929",
"s 	c #E32727",
"t 	c #E13636",
"u 	c #E42222",
"v 	c #E03F3F",
"w 	c #D69090",
"x 	c #080000",
"y 	c #B5B5B5",
"z 	c #BBBBBB",
"A 	c #C2C0C0",
"B 	c #CBAFAF",
"C 	c #DE4D4D",
"D 	c #E41D1D",
"E 	c #E24242",
"F 	c #DAA4A4",
"G 	c #D7D1D1",
"H 	c #B9B9B9",
"I 	c #C0C0C0",
"J 	c #C6C3C3",
"K 	c #D2A3A3",
"L 	c #E13B3B",
"M 	c #E41F1F",
"N 	c #E26B6B",
"O 	c #DFD2D2",
"P 	c #DEDEDE",
"Q 	c #BCBCBC",
"R 	c #C3C1C1",
"S 	c #CEABAB",
"T 	c #DF4C4C",
"U 	c #E42121",
"V 	c #E43030",
"W 	c #E42525",
"X 	c #E53232",
"Y 	c #E6A9A9",
"Z 	c #E5E4E4",
"` 	c #BFB9B9",
" .	c #CC9F9F",
"..	c #DC5858",
"+.	c #E42323",
"@.	c #E34242",
"#.	c #E39393",
"$.	c #E55353",
"%.	c #E52424",
"&.	c #E86C6C",
"*.	c #ECD8D8",
"=.	c #CC8787",
"-.	c #DE4040",
";.	c #E32424",
">.	c #E23737",
",.	c #E09999",
"'.	c #E5DDDD",
").	c #EAA7A7",
"!.	c #E63838",
"~.	c #E62F2F",
"{.	c #EC8D8D",
"].	c #0A0101",
"^.	c #580A0A",
"/.	c #DF3333",
"(.	c #E32222",
"_.	c #E04242",
":.	c #DB9696",
"<.	c #DFD8D8",
"[.	c #E7E7E7",
"}.	c #EEDFDF",
"|.	c #EC7373",
"1.	c #E62525",
"2.	c #E73B3B",
"3.	c #420707",
"4.	c #C61717",
"5.	c #E32020",
"6.	c #DA5555",
"7.	c #D3A8A8",
"8.	c #E6E6E6",
"9.	c #ECEBEB",
"0.	c #EFC3C3",
"a.	c #E84545",
"b.	c #E52323",
"c.	c #9F1212",
"d.	c #DE1A1A",
"e.	c #9D1212",
"f.	c #1F0303",
"g.	c #010000",
"h.	c #060000",
"i.	c #5F0B0B",
"j.	c #D01818",
"  . .                                   ",
"  . . .                                 ",
"    . . .                               ",
"      . + @ # $ % % % % % % & * . . .   ",
"        = - ; > , ' ) ! ~ { ] ^ . .     ",
"        / ( _ : < [ } | 1 2 3 4 .       ",
"        % 5 6 7 7 8 9 0 a b c d         ",
"        % e f g h i j k l m n o         ",
"        % ~ | p q r s t u v w x         ",
"        % y z A B C D . E F G %         ",
"        % H I J K L . M N O P %         ",
"        % Q R S T U V W X Y Z %         ",
"        % `  ...+.@.#.$.%.&.*.%         ",
"        x =.-.;.>.,.'.).!.~.{.].        ",
"        ^./.(._.:.<.[.}.|.1.2.3.        ",
"        4.5.6.7.G P 8.9.0.a.b.c.        ",
"      . d.e.f.g.% % % % h.i.j.4 .       ",
"    . . .                   . . .       ",
"      .                       . .       ",
"                                        "};
