/* XPM */
static char * button_cursorstart_xpm[] = {
"20 20 22 1",
" 	c None",
".	c #000000",
"+	c #777777",
"@	c #996B2B",
"#	c #A2712D",
"$	c #0E0E0E",
"%	c #AB772F",
"&	c #1C1C1C",
"*	c #0000FF",
"=	c #B37D31",
"-	c #2A2A2A",
";	c #BC8434",
">	c #393939",
",	c #C48A36",
"'	c #474747",
")	c #CD9138",
"!	c #555555",
"~	c #D5973A",
"{	c #636363",
"]	c #DE9E3C",
"^	c #727272",
"/	c #E7A53E",
"                    ",
"                    ",
"                    ",
"                    ",
"  .......+@@@@@@@@  ",
"  .......+@@@@@@@@  ",
"  .......+########  ",
"  $$$$$$$+%%%%%%%%  ",
"  &&*&&&&*====*===  ",
"  *-*****+**;*;***  ",
"  >*>>*>>+,,*,,**,  ",
"  '''''''+))))))))  ",
"  !!!!!!!+~~~~~~~~  ",
"  {{{{{{{+]]]]]]]]  ",
"  ^^^^^^^+////////  ",
"  ^^^^^^^+////////  ",
"                    ",
"                    ",
"                    ",
"                    "};
