/* XPM */
static char * button_cursorend_xpm[] = {
"20 20 21 1",
" 	c None",
".	c #9A6B2B",
"+	c #777777",
"@	c #000000",
"#	c #A4732D",
"$	c #0E0E0E",
"%	c #AE7A30",
"&	c #0000FF",
"*	c #1C1C1C",
"=	c #B78132",
"-	c #2A2A2A",
";	c #C18835",
">	c #393939",
",	c #CB8F38",
"'	c #474747",
")	c #D4963A",
"!	c #555555",
"~	c #DE9D3D",
"{	c #636363",
"]	c #E7A53F",
"^	c #727272",
"                    ",
"                    ",
"                    ",
"                    ",
"  .......+@@@@@@@@  ",
"  .......+@@@@@@@@  ",
"  .......+@@@@@@@@  ",
"  #######+$$$$$$$$  ",
"  %%&%%%%&****&***  ",
"  &=&&&&&+&&-&-&&&  ",
"  ;&;;&;;+>>&>>&&>  ",
"  ,,,,,,,+''''''''  ",
"  )))))))+!!!!!!!!  ",
"  ~~~~~~~+{{{{{{{{  ",
"  ]]]]]]]+^^^^^^^^  ",
"  ]]]]]]]+^^^^^^^^  ",
"                    ",
"                    ",
"                    ",
"                    "};
