/* XPM */
static char * button_follow_xpm[] = {
"20 20 14 1",
" 	c None",
".	c #000000",
"+	c #777777",
"@	c #0B0B0B",
"#	c #161616",
"$	c #FFFFFF",
"%	c #222222",
"&	c #0000FF",
"*	c #393939",
"=	c #444444",
"-	c #4F4F4F",
";	c #5B5B5B",
">	c #666666",
",	c #727272",
"                    ",
"                    ",
"                    ",
"                    ",
"  .......+........  ",
"  .......+........  ",
"  @@@@@@@+@@@@@@@@  ",
"  ####$##+##$#####  ",
"  %%&%$$%&%$$%&%%%  ",
"  &$$$$$$+$$$$$$&&  ",
"  *&**$$*+*$$**&&*  ",
"  ====$==+==$=====  ",
"  -------+--------  ",
"  ;;;;;;;+;;;;;;;;  ",
"  >>>>>>>+>>>>>>>>  ",
"  ,,,,,,,+,,,,,,,,  ",
"                    ",
"                    ",
"                    ",
"                    "};
