/* XPM */
static char * button_cut_xpm[] = {
"20 20 38 1",
" 	c None",
".	c #BABABA",
"+	c #000000",
"@	c #878787",
"#	c #1D1D1D",
"$	c #1B1B1B",
"%	c #1F1F1F",
"&	c #212121",
"*	c #242424",
"=	c #232323",
"-	c #262626",
";	c #282828",
">	c #2A2A2A",
",	c #252525",
"'	c #272727",
")	c #2F2F2F",
"!	c #313131",
"~	c #292929",
"{	c #363636",
"]	c #383838",
"^	c #2B2B2B",
"/	c #2E2E2E",
"(	c #3A3A3A",
"_	c #3D3D3D",
":	c #3F3F3F",
"<	c #424242",
"[	c #323232",
"}	c #3E3E3E",
"|	c #464646",
"1	c #484848",
"2	c #2C2C2C",
"3	c #434343",
"4	c #4D4D4D",
"5	c #3B3B3B",
"6	c #474747",
"7	c #4A4A4A",
"8	c #505050",
"9	c #4E4E4E",
"                    ",
"                    ",
"                    ",
"     .        .     ",
"      +      +      ",
"      @+    +@      ",
"       ++  ++       ",
"       .+#$+        ",
"        %&*@        ",
"       .=-;>        ",
"       ,'.@)!       ",
"      '~@  @{]      ",
"    -~^/.  .(_:<    ",
"   ;> @[    }@ |1   ",
"   2   {    3   4   ",
"   !. ]5    67 .8   ",
"   .](_      988.   ",
"                    ",
"                    ",
"                    "};
