/* XPM */
static char * button_mixer_xpm[] = {
"20 20 19 1",
" 	c None",
".	c #FFFFFF",
"+	c #000000",
"@	c #0E0E0E",
"#	c #0C0C0C",
"$	c #1C1C1C",
"%	c #191919",
"&	c #2A2A2A",
"*	c #262626",
"=	c #393939",
"-	c #323232",
";	c #474747",
">	c #3F3F3F",
",	c #555555",
"'	c #4B4B4B",
")	c #636363",
"!	c #585858",
"~	c #727272",
"{	c #656565",
"                    ",
"                    ",
"                    ",
"                    ",
"     ....   ....    ",
"     .++.   .++.    ",
"     .++.   .++.    ",
"     .@@. ...##...  ",
"     .$$. .%%%%%%.  ",
"     .&&. ...**...  ",
"     .==.   .--.    ",
"   ...;;... .>>.    ",
"   .,,,,,,. .''.    ",
"   ...))... .!!.    ",
"     .~~.   .{{.    ",
"     .~~.   .~~.    ",
"     ....   ....    ",
"                    ",
"                    ",
"                    "};
