/* XPM */
static char * button_play_xpm[] = {
"20 20 13 1",
" 	c None",
".	c #000000",
"+	c #1DB917",
"@	c #28BE22",
"#	c #32C12B",
"$	c #35C22E",
"%	c #39C432",
"&	c #47C93E",
"*	c #4CCA44",
"=	c #5ACF51",
"-	c #64D25B",
";	c #1FBA1A",
">	c #7DDA73",
"                    ",
"                    ",
"      ...           ",
"      .+..          ",
"      .++..         ",
"      .+++..        ",
"      .++++..       ",
"      .++@#$..      ",
"      .+@%&*&..     ",
"      .+#&=-=&.     ",
"      .;$*->-..     ",
"      .+#&=-..      ",
"      .+@%&..       ",
"      .++@..        ",
"      .++..         ",
"      .+..          ",
"      ...           ",
"                    ",
"                    ",
"                    "};
