/* XPM */
static char * button_copy_xpm[] = {
"20 20 71 1",
" 	c None",
".	c #000000",
"+	c #666666",
"@	c #676767",
"#	c #6B6B6B",
"$	c #6E6E6E",
"%	c #707070",
"&	c #717171",
"*	c #727272",
"=	c #6F6F6F",
"-	c #737373",
";	c #767676",
">	c #787878",
",	c #7A7A7A",
"'	c #828282",
")	c #838383",
"!	c #9A9A9A",
"~	c #9F9F9F",
"{	c #A3A3A3",
"]	c #A7A7A7",
"^	c #AAAAAA",
"/	c #ADADAD",
"(	c #AFAFAF",
"_	c #B0B0B0",
":	c #8B8B8B",
"<	c #8C8C8C",
"[	c #A0A0A0",
"}	c #A5A5A5",
"|	c #AEAEAE",
"1	c #B2B2B2",
"2	c #B4B4B4",
"3	c #B7B7B7",
"4	c #B8B8B8",
"5	c #949494",
"6	c #A6A6A6",
"7	c #ABABAB",
"8	c #B5B5B5",
"9	c #B9B9B9",
"0	c #BCBCBC",
"a	c #BEBEBE",
"b	c #C0C0C0",
"c	c #9C9C9C",
"d	c #9D9D9D",
"e	c #B1B1B1",
"f	c #BBBBBB",
"g	c #C3C3C3",
"h	c #C6C6C6",
"i	c #C7C7C7",
"j	c #C8C8C8",
"k	c #C2C2C2",
"l	c #CACACA",
"m	c #CDCDCD",
"n	c #CFCFCF",
"o	c #D0D0D0",
"p	c #D1D1D1",
"q	c #D4D4D4",
"r	c #D7D7D7",
"s	c #D2D2D2",
"t	c #DCDCDC",
"u	c #DEDEDE",
"v	c #DFDFDF",
"w	c #DDDDDD",
"x	c #E2E2E2",
"y	c #E6E6E6",
"z	c #E7E7E7",
"A	c #E8E8E8",
"B	c #EDEDED",
"C	c #EFEFEF",
"D	c #F3F3F3",
"E	c #F7F7F7",
"F	c #FFFFFF",
"                    ",
"      ............  ",
"      .+++@#$%&*&.  ",
"      .++#=-;>,,,.  ",
"  ............')'.  ",
"  .!~{]^/(___.:<:.  ",
"  .[}^|123444.555.  ",
"  .67_890abbb.cdc.  ",
"  .7e3fbghiji.}6}.  ",
"  ._30khlmnon./|/.  ",
"  .8fkimpqrrr.838.  ",
"  .9bhmsrtuvu.0b0.  ",
"  .0glprwxyzy.bjb.  ",
"  .ahmqtxABCB.0b0.  ",
"  .binruyBDED.....  ",
"  .bjorvzCEFE.      ",
"  .binruyBDED.      ",
"  ............      ",
"                    ",
"                    "};
