/* XPM */
static char * button_paste_xpm[] = {
"20 20 59 1",
" 	c None",
".	c #000000",
"+	c #B5B5B5",
"@	c #BBBBBB",
"#	c #C2C2C2",
"$	c #C7C7C7",
"%	c #CDCDCD",
"&	c #D1D1D1",
"*	c #D4D4D4",
"=	c #D7D7D7",
"-	c #B9B9B9",
";	c #C0C0C0",
">	c #C6C6C6",
",	c #D2D2D2",
"'	c #DCDCDC",
")	c #DEDEDE",
"!	c #DFDFDF",
"~	c #BCBCBC",
"{	c #C3C3C3",
"]	c #CACACA",
"^	c #DDDDDD",
"/	c #E2E2E2",
"(	c #E6E6E6",
"_	c #E7E7E7",
":	c #BEBEBE",
"<	c #E8E8E8",
"[	c #EDEDED",
"}	c #EFEFEF",
"|	c #CFCFCF",
"1	c #F3F3F3",
"2	c #F7F7F7",
"3	c #C8C8C8",
"4	c #D0D0D0",
"5	c #FFFFFF",
"6	c #484848",
"7	c #4B4B4B",
"8	c #4C4C4C",
"9	c #515151",
"0	c #585858",
"a	c #5C5C5C",
"b	c #5D5D5D",
"c	c #575757",
"d	c #606060",
"e	c #686868",
"f	c #6D6D6D",
"g	c #6F6F6F",
"h	c #636363",
"i	c #787878",
"j	c #7E7E7E",
"k	c #808080",
"l	c #7C7C7C",
"m	c #878787",
"n	c #8F8F8F",
"o	c #919191",
"p	c #949494",
"q	c #9F9F9F",
"r	c #A3A3A3",
"s	c #ADADAD",
"t	c #B4B4B4",
"    .+@#$%&*===.    ",
"    .-;>%,=')!).    ",
"    .~{]&=^/(_(.    ",
"    .:>%*'/<[}[.    ",
"    .;$|=)([121.    ",
"    .;34=!_}252.    ",
"    .;$|=)([121.    ",
"    ............    ",
"                    ",
".........  .........",
".6666787.  .6666787.",
".6690aba.  .6690aba.",
".7cdefgf.  .7cdefgf.",
".chgijkj.  .chgijkj.",
".dglmnon.  .dglmnon.",
".eimpqrq.  .eimpqrq.",
".fjnqsts.  .fjnqsts.",
".gkort>t.  .gkort>t.",
".fjnqsts.  .fjnqsts.",
".........  ........."};
