/* XPM */
static char * button_save_xpm[] = {
"20 20 58 1",
" 	c None",
".	c #000000",
"+	c #4252ED",
"@	c #C8C8C8",
"#	c #D2D2D2",
"$	c #DEDEDE",
"%	c #E4E4E4",
"&	c #6D7DE9",
"*	c #7180E9",
"=	c #D5D5D5",
"-	c #7685E8",
";	c #7887E8",
">	c #7281E9",
",	c #7F8CE7",
"'	c #4455EC",
")	c #4A5BEC",
"!	c #5060EB",
"~	c #5566EB",
"{	c #5B6BEA",
"]	c #6070EA",
"^	c #6574EA",
"/	c #6978E9",
"(	c #6B7BE9",
"_	c #6C7CE9",
":	c #4253EC",
"<	c #4858EC",
"[	c #4D5EEC",
"}	c #5263EB",
"|	c #5768EB",
"1	c #5C6CEA",
"2	c #6373EA",
"3	c #6575EA",
"4	c #6676EA",
"5	c #E6E6E6",
"6	c #EAEAEA",
"7	c #EEEEEE",
"8	c #F2F2F2",
"9	c #F6F6F6",
"0	c #F9F9F9",
"a	c #FBFBFB",
"b	c #5F6FEA",
"c	c #E7E7E7",
"d	c #EBEBEB",
"e	c #EFEFEF",
"f	c #F3F3F3",
"g	c #F7F7F7",
"h	c #FFFFFF",
"i	c #5A6AEB",
"j	c #596AEB",
"k	c #5464EB",
"l	c #5364EB",
"m	c #E5E5E5",
"n	c #E9E9E9",
"o	c #EDEDED",
"p	c #F0F0F0",
"q	c #4758EC",
"r	c #E2E2E2",
"s	c #E8E8E8",
"                    ",
"                    ",
"  ..............    ",
"  .++.@@#$%$.&*..   ",
"  .++.@@=..%.*-;..  ",
"  .++.@@#..$.>;,;.  ",
"  .++.@@@#=#.*-;-.  ",
"  .++........&*>*.  ",
"  .+++')!~{]^/(_(.  ",
"  .+++:<[}|1]2343.  ",
"  .++567890a098]b.  ",
"  .++cdefgahagfij.  ",
"  .++567890a098kl.  ",
"  .++mnopf9g9fp[[.  ",
"  .++%cd7p8f8p7qq.  ",
"  .++rmsdo7e7od++.  ",
"  .++++++++++++++.  ",
"  ................  ",
"                    ",
"                    "};
