/* XPM */
static char * button_follow_xpm[] = {
"20 20 14 1",
" 	c None",
".	c #000000",
"+	c #FFFFFF",
"@	c #60D33C",
"#	c #090909",
"$	c #111111",
"%	c #1B1B1B",
"&	c #0000FF",
"*	c #2C2C2C",
"=	c #2D2D2D",
"-	c #353535",
";	c #3E3E3E",
">	c #474747",
",	c #505050",
"                    ",
"                    ",
"                    ",
" .................. ",
" .++++++++++++++++. ",
" .+......@@......+. ",
" .+######@@######+. ",
" .+$$$+$$@@$$+$$$+. ",
" .+%&%++%@@%++%&%+. ",
" .+++++++@@+++++++. ",
" .+&**++=@@*++**&+. ",
" .+---+--@@--+---+. ",
" .+;;;;;;@@;;;;;;+. ",
" .+>>>>>>@@>>>>>>+. ",
" .+,,,,,,@@,,,,,,+. ",
" .++++++++++++++++. ",
" .................. ",
"                    ",
"                    ",
"                    "};
