/* XPM */
static char * button_pasteover_xpm[] = {
"20 20 73 1",
" 	c None",
".	c #000000",
"+	c #9A9A9A",
"@	c #9F9F9F",
"#	c #A3A3A3",
"$	c #A7A7A7",
"%	c #AAAAAA",
"&	c #ADADAD",
"*	c #AFAFAF",
"=	c #B0B0B0",
"-	c #A0A0A0",
";	c #A5A5A5",
">	c #AEAEAE",
",	c #B2B2B2",
"'	c #B4B4B4",
")	c #B7B7B7",
"!	c #B8B8B8",
"~	c #A6A6A6",
"{	c #ABABAB",
"]	c #B5B5B5",
"^	c #B9B9B9",
"/	c #BCBCBC",
"(	c #BEBEBE",
"_	c #C0C0C0",
":	c #B1B1B1",
"<	c #BBBBBB",
"[	c #C3C3C3",
"}	c #C6C6C6",
"|	c #C7C7C7",
"1	c #C8C8C8",
"2	c #C2C2C2",
"3	c #CACACA",
"4	c #CDCDCD",
"5	c #CFCFCF",
"6	c #D0D0D0",
"7	c #D1D1D1",
"8	c #D4D4D4",
"9	c #D7D7D7",
"0	c #D2D2D2",
"a	c #DCDCDC",
"b	c #DEDEDE",
"c	c #DFDFDF",
"d	c #DDDDDD",
"e	c #E2E2E2",
"f	c #E6E6E6",
"g	c #E7E7E7",
"h	c #484848",
"i	c #4B4B4B",
"j	c #4C4C4C",
"k	c #E8E8E8",
"l	c #EDEDED",
"m	c #EFEFEF",
"n	c #515151",
"o	c #585858",
"p	c #5C5C5C",
"q	c #5D5D5D",
"r	c #F3F3F3",
"s	c #F7F7F7",
"t	c #575757",
"u	c #606060",
"v	c #686868",
"w	c #6D6D6D",
"x	c #6F6F6F",
"y	c #FFFFFF",
"z	c #636363",
"A	c #787878",
"B	c #7E7E7E",
"C	c #808080",
"D	c #7C7C7C",
"E	c #878787",
"F	c #8F8F8F",
"G	c #919191",
"H	c #949494",
"                    ",
"        ............",
"        .+@#$%&*===.",
"        .-;%>,')!!!.",
"        .~{=]^/(___.",
"        .{:)<_[}|1|.",
"        .=)/2}34565.",
"        .]<2|478999.",
"        .^_}409abcb.",
"........./[379defgf.",
".hhhhiji.(}48aeklml.",
".hhnopqp._|59bflrsr.",
".ituvwxw._169cgmsys.",
".tzxABCB._|59bflrsr.",
".uxDEFGF............",
".vAEH@#@.  .vAEH@#@.",
".wBF@&'&.  .wBF@&'&.",
".xCG#'}'.  .xCG#'}'.",
".wBF@&'&.  .wBF@&'&.",
".........  ........."};
