/* XPM */
static char * button_open_xpm[] = {
"20 20 33 1",
" 	c None",
".	c #000000",
"+	c #E2BE44",
"@	c #E3C150",
"#	c #E5C45B",
"$	c #E6C764",
"%	c #E7C96C",
"&	c #E7CA70",
"*	c #E8CB72",
"=	c #E3C04E",
"-	c #E6C867",
";	c #E9CE7B",
">	c #E9CF81",
",	c #EAD083",
"'	c #895E2A",
")	c #E1BD40",
"!	c #E2BE48",
"~	c #E4C356",
"{	c #E9CF7F",
"]	c #EAD28A",
"^	c #EBD491",
"/	c #ECD594",
"(	c #E3C04D",
"_	c #E5C45C",
":	c #ECD697",
"<	c #EDD9A1",
"[	c #EEDBA5",
"}	c #E5C660",
"|	c #EFDEAF",
"1	c #F0E1B7",
"2	c #E4C151",
"3	c #E6C662",
"4	c #F1E7C8",
"                    ",
"                    ",
"                    ",
"                    ",
"                    ",
"                    ",
"   ...........      ",
"   .+@#$%&*&%.....  ",
" ...=#-*;>,>;.'''.  ",
" .)!~$*{]^/^].'''.  ",
" .)(_%;]:<[<:.''.   ",
" .)@}&>^<|1|<^.'.   ",
"  .23*,/[141[/.'.   ",
"  .@}&>^<|1|<^..    ",
"  .(_%;]:<[<:]..    ",
"   ............     ",
"                    ",
"                    ",
"                    ",
"                    "};
