/* XPM */
static char * button_loop_xpm[] = {
"20 20 15 1",
" 	c None",
".	c #000000",
"+	c #1DB917",
"@	c #1DBD18",
"#	c #1FC119",
"$	c #20C519",
"%	c #21C91A",
"&	c #22CD1B",
"*	c #23D11B",
"=	c #24D51C",
"-	c #25D91D",
";	c #26DD1D",
">	c #27E11E",
",	c #28E51F",
"'	c #29E91F",
"                    ",
"                    ",
"                    ",
"      ........      ",
"    ...+++@#$...    ",
"   ..++++@#$%&*..   ",
"  ..++++@#$%&*=-..  ",
"  .++++@....*=-;>.  ",
"  .+++...  ...;>,.  ",
"  .++@...    .>,'.  ",
"  .+@#.%......,''.  ",
"  .@#$%&*..;>,'''.  ",
"  ..$%&*=-.>,'''..  ",
"   ..&*=-..,'''..   ",
"    ...-........    ",
"      ...           ",
"                    ",
"                    ",
"                    ",
"                    "};
