/* XPM */
static char *button_bounce_xpm[] = {
"20 20 6 1",
" 	c None",
"1	c #FFFFFF",
"2	c #000000",
"3	c #D6ECEC",
"4	c #EFEEEB",
"5	c #656565",
"                    ",
"                    ",
"               222  ",
"       55555555212  ",
"     5551155115212  ",
"     5155555555212  ",
"     515       212  ",
"     555       212  ",
"   5555555     212  ",
"   5151515     212  ",
"   5511155     212  ",
"    55155      212  ",
"    22222  22  212  ",
"   2211122 212 212  ",
"   213411222212212  ",
"   214111111111212  ",
"   211111222212212  ",
"   2211122 2122212  ",
"    22222  222 222  ",
"                    "
};
