/* XPM */
static char * button_playselection_xpm[] = {
"20 20 16 1",
" 	c None",
".	c #000000",
"+	c #FCDF0F",
"@	c #FBE022",
"#	c #FAE02F",
"$	c #FAE02B",
"%	c #F9E142",
"&	c #F9E252",
"*	c #F8E258",
"=	c #F8E35E",
"-	c #F7E473",
";	c #F7E57C",
">	c #F6E791",
",	c #F5E89F",
"'	c #FAE133",
")	c #F4ECC2",
"                    ",
"                    ",
"      ...           ",
"      .+..          ",
"      .++..         ",
"      .+++..        ",
"      .++@#..       ",
"      .+$%&*..      ",
"      .@%=-;-..     ",
"      .#&->,>-.     ",
"      .'*;,),..     ",
"      .#&->,..      ",
"      .@%=-..       ",
"      .+$%..        ",
"      .++..         ",
"      .+..          ",
"      ...           ",
"                    ",
"                    ",
"                    "};
