/* XPM */
static char *button_redo_xpm[] = {
"20 20 40 2",
"  	c None",
"01	c #000000",
"02	c #26BA21",
"03	c #23BA1E",
"04	c #1FBA1A",
"05	c #1DB917",
"06	c #32BB2C",
"07	c #30BB2A",
"08	c #2DBB28",
"09	c #2ABB24",
"0A	c #21BA1C",
"0B	c #3ABC35",
"0C	c #39BC34",
"0D	c #37BC32",
"0E	c #34BB2F",
"0F	c #30BB2B",
"10	c #2CBB27",
"11	c #27BA22",
"12	c #22BA1D",
"13	c #42BC3D",
"14	c #40BC3B",
"15	c #3EBC39",
"16	c #4ABD45",
"17	c #49BD44",
"18	c #47BD42",
"19	c #51BE4C",
"1A	c #58BE53",
"1B	c #59BE54",
"1C	c #5FBF5B",
"1D	c #61BF5C",
"1E	c #28BA23",
"1F	c #66BF62",
"20	c #68BF64",
"21	c #2ABB25",
"22	c #6DC068",
"23	c #70C06C",
"24	c #2BBB26",
"25	c #24BA1F",
"26	c #77C073",
"27	c #1DBA18",
"                                        ",
"                                        ",
"              010101010101              ",
"          01010105040302010101          ",
"        010105050A02090807060101        ",
"      010105051211100F0E0D0C0B0101      ",
"      0105050A11010101011514131301      ",
"    01010504020101    01011817160101    ",
"    010505030101        010119191901    ",
"    0105040201            011A1B1A01    ",
"    01050A1E01            011C1D1C01    ",
"    0105032101          01011F201F0101  ",
"    0105252401        01011F2223221F0101",
"    0127251001          01012326230101  ",
"    0101010101            0101230101    ",
"                            010101      ",
"                                        ",
"                                        ",
"                                        ",
"                                        "
};
