/* XPM */
static char * hzoom_xpm[] = {
"20 20 2 1",
" 	c None",
".	c #3C3D3B",
"                    ",
"                    ",
"                    ",
"                    ",
"                    ",
"                    ",
"     .        .     ",
"    ..        ..    ",
"   ...        ...   ",
"  ................  ",
" .................. ",
"  ................  ",
"   ...        ...   ",
"    ..        ..    ",
"     .        .     ",
"                    ",
"                    ",
"                    ",
"                    ",
"                    "};
