#define hzoom_width 20
#define hzoom_height 20
static unsigned char hzoom_bits[] = {
   0x00, 0x00, 0x00, 0x00, 0x00, 0x00, 0x00, 0x00, 0x00, 0x00, 0x00, 0x00,
   0x00, 0x00, 0x00, 0x00, 0x00, 0x00, 0x20, 0x40, 0x00, 0x30, 0xc0, 0x00,
   0x38, 0xc0, 0x01, 0xfc, 0xff, 0x03, 0xfe, 0xff, 0x07, 0xfc, 0xff, 0x03,
   0x38, 0xc0, 0x01, 0x30, 0xc0, 0x00, 0x20, 0x40, 0x00, 0x00, 0x00, 0x00,
   0x00, 0x00, 0x00, 0x00, 0x00, 0x00, 0x00, 0x00, 0x00, 0x00, 0x00, 0x00 };
