#define speed_width 20
#define speed_height 20
static unsigned char speed_bits[] = {
   0x00, 0x00, 0x00, 0x00, 0x00, 0x00, 0x00, 0x00, 0x00, 0x00, 0x00, 0x00,
   0x00, 0x00, 0x00, 0x00, 0x00, 0x00, 0x00, 0x22, 0x00, 0x00, 0x66, 0x00,
   0x00, 0xee, 0x00, 0xfc, 0xff, 0x01, 0xfc, 0xff, 0x03, 0xfc, 0xff, 0x01,
   0x00, 0xee, 0x00, 0x00, 0x66, 0x00, 0x00, 0x22, 0x00, 0x00, 0x00, 0x00,
   0x00, 0x00, 0x00, 0x00, 0x00, 0x00, 0x00, 0x00, 0x00, 0x00, 0x00, 0x00 };
