#define vzoom_width 20
#define vzoom_height 20
static unsigned char vzoom_bits[] = {
   0x00, 0x00, 0x00, 0x00, 0x02, 0x00, 0x00, 0x07, 0x00, 0x80, 0x0f, 0x00,
   0xc0, 0x1f, 0x00, 0xe0, 0x3f, 0x00, 0x00, 0x07, 0x00, 0x00, 0x07, 0x00,
   0x00, 0x07, 0x00, 0x00, 0x07, 0x00, 0x00, 0x07, 0x00, 0x00, 0x07, 0x00,
   0x00, 0x07, 0x00, 0x00, 0x07, 0x00, 0xe0, 0x3f, 0x00, 0xc0, 0x1f, 0x00,
   0x80, 0x0f, 0x00, 0x00, 0x07, 0x00, 0x00, 0x02, 0x00, 0x00, 0x00, 0x00 };
